<svg id="Layer_1" data-name="Layer 1" xmlns="http://www.w3.org/2000/svg" viewBox="0 0 102.17 122.88"><title>files</title><path d="M102.17,29.66A3,3,0,0,0,100,26.79L73.62,1.1A3,3,0,0,0,71.31,0h-46a5.36,5.36,0,0,0-5.36,5.36V20.41H5.36A5.36,5.36,0,0,0,0,25.77v91.75a5.36,5.36,0,0,0,5.36,5.36H76.9a5.36,5.36,0,0,0,5.33-5.36v-15H96.82a5.36,5.36,0,0,0,5.33-5.36q0-33.73,0-67.45ZM25.91,20.41V6h42.4V30.24a3,3,0,0,0,3,3H96.18q0,31.62,0,63.24h-14l0-46.42a3,3,0,0,0-2.17-2.87L53.69,21.51a2.93,2.93,0,0,0-2.3-1.1ZM54.37,30.89,72.28,47.67H54.37V30.89ZM6,116.89V26.37h42.4V50.65a3,3,0,0,0,3,3H76.26q0,31.64,0,63.24ZM17.33,69.68a2.12,2.12,0,0,1,1.59-.74H54.07a2.14,2.14,0,0,1,1.6.73,2.54,2.54,0,0,1,.63,1.7,2.57,2.57,0,0,1-.64,1.7,2.16,2.16,0,0,1-1.59.74H18.92a2.15,2.15,0,0,1-1.6-.73,2.59,2.59,0,0,1,0-3.4Zm0,28.94a2.1,2.1,0,0,1,1.58-.74H63.87a2.12,2.12,0,0,1,1.59.74,2.57,2.57,0,0,1,.64,1.7,2.54,2.54,0,0,1-.63,1.7,2.14,2.14,0,0,1-1.6.73H18.94a2.13,2.13,0,0,1-1.59-.73,2.56,2.56,0,0,1,0-3.4ZM63.87,83.41a2.12,2.12,0,0,1,1.59.74,2.59,2.59,0,0,1,0,3.4,2.13,2.13,0,0,1-1.6.72H18.94a2.12,2.12,0,0,1-1.59-.72,2.55,2.55,0,0,1-.64-1.71,2.5,2.5,0,0,1,.65-1.69,2.1,2.1,0,0,1,1.58-.74ZM17.33,55.2a2.15,2.15,0,0,1,1.59-.73H39.71a2.13,2.13,0,0,1,1.6.72,2.61,2.61,0,0,1,0,3.41,2.15,2.15,0,0,1-1.59.73H18.92a2.14,2.14,0,0,1-1.6-.72,2.61,2.61,0,0,1,0-3.41Zm0-14.47A2.13,2.13,0,0,1,18.94,40H30.37a2.12,2.12,0,0,1,1.59.72,2.61,2.61,0,0,1,0,3.41,2.13,2.13,0,0,1-1.58.73H18.94a2.16,2.16,0,0,1-1.59-.72,2.57,2.57,0,0,1-.64-1.71,2.54,2.54,0,0,1,.65-1.7ZM74.3,10.48,92.21,27.26H74.3V10.48Z"/></svg>